<?xml version="1.0" encoding="iso-8859-1"?>
<!-- Generator: Adobe Illustrator 19.0.0, SVG Export Plug-In . SVG Version: 6.00 Build 0)  -->
<svg version="1.1" id="Layer_1" xmlns="http://www.w3.org/2000/svg" xmlns:xlink="http://www.w3.org/1999/xlink" x="0px" y="0px"
	 viewBox="0 0 512 512" style="enable-background:new 0 0 512 512;" xml:space="preserve">
<path style="fill:#5B5D6E;" d="M126.666,401.864c-8.736,0-15.818-7.082-15.818-15.818V163.479c0-62.887,51.163-114.05,114.05-114.05
	c8.736,0,15.818,7.082,15.818,15.818s-7.082,15.818-15.818,15.818c-45.443,0-82.415,36.971-82.415,82.415v222.568
	C142.484,394.783,135.402,401.864,126.666,401.864z"/>
<path style="opacity:0.1;enable-background:new    ;" d="M126.666,386.046V163.479c0-58.972,44.99-107.634,102.45-113.464
	c-1.345-0.371-2.754-0.586-4.217-0.586c-62.887,0-114.05,51.163-114.05,114.05v222.568c0,8.736,7.082,15.818,15.818,15.818
	c2.885,0,5.581-0.785,7.909-2.133C129.852,396.994,126.666,391.898,126.666,386.046z"/>
<path style="fill:#B3B3B3;" d="M397.898,148.654c-6.137,0-12.14-3.06-15.645-8.642c-13.168-20.965-33.698-35.607-57.81-41.226
	l-66.785-15.568c-9.926-2.314-16.097-12.236-13.783-22.162c2.314-9.926,12.243-16.097,22.162-13.783l66.785,15.568
	c33.653,7.844,62.308,28.279,80.686,57.541c5.421,8.631,2.819,20.022-5.813,25.442C404.646,147.741,401.252,148.654,397.898,148.654
	z"/>
<path style="opacity:0.1;enable-background:new    ;" d="M410.553,139.164c-6.137,0-12.14-3.06-15.645-8.642
	c-13.168-20.965-33.698-35.607-57.81-41.226l-66.785-15.568c-9.926-2.314-16.097-12.236-13.783-22.162
	c0.366-1.568,0.94-3.03,1.656-4.392c-6.852,1.395-12.619,6.627-14.31,13.883c-2.314,9.926,3.857,19.848,13.783,22.162l66.785,15.568
	c24.112,5.621,44.642,20.261,57.81,41.226c3.505,5.582,9.508,8.642,15.645,8.642c3.354,0,6.748-0.914,9.798-2.829
	c2.855-1.793,5.033-4.245,6.497-7.029C412.987,139.04,411.766,139.164,410.553,139.164z"/>
<rect x="247.948" y="105.505" style="fill:#5B5D6E;" width="55.215" height="67.964"/>
<path style="fill:#FF462E;" d="M275.557,139.486L275.557,139.486c-63.111,0-114.273,51.161-114.273,114.272v250.333h228.545V253.758
	C389.829,190.647,338.667,139.486,275.557,139.486z"/>
<path style="fill:#CCCCCC;" d="M280.293,78.771c-8.113,0-15.55-5.392-17.791-13.597c-2.685-9.832,3.109-19.979,12.94-22.664
	L399.739,8.567c9.828-2.686,19.978,3.108,22.664,12.94c2.685,9.832-3.109,19.979-12.94,22.664L285.166,78.114
	C283.539,78.559,281.904,78.771,280.293,78.771z"/>
<path style="opacity:0.1;enable-background:new    ;" d="M421.72,19.499c-2.076,5.185-6.454,9.379-12.257,10.964L285.167,64.407
	c-1.627,0.444-3.264,0.657-4.873,0.657c-7.431,0-14.281-4.531-17.104-11.595c-1.444,3.601-1.787,7.676-0.686,11.707
	c2.241,8.205,9.677,13.597,17.791,13.597c1.609,0,3.246-0.212,4.873-0.657l124.296-33.944c9.831-2.685,15.625-12.831,12.94-22.664
	C422.215,20.815,421.979,20.149,421.72,19.499z"/>
<circle style="fill:#464655;" cx="275.555" cy="65.247" r="50.659"/>
<circle style="fill:#FFFFFF;" cx="275.555" cy="65.247" r="26.007"/>
<path style="fill:#E6E6E6;" d="M265.368,65.247c0-11.605,7.603-21.431,18.098-24.778c-2.494-0.795-5.15-1.229-7.909-1.229
	c-14.364,0-26.007,11.644-26.007,26.007s11.644,26.007,26.007,26.007c2.759,0,5.415-0.433,7.909-1.229
	C272.97,86.678,265.368,76.852,265.368,65.247z"/>
<rect x="161.288" y="378.667" style="fill:#CCCCCC;" width="228.546" height="37.963"/>
<path style="opacity:0.1;enable-background:new    ;" d="M292.429,140.729c-5.507-0.815-11.139-1.242-16.872-1.242l0,0
	c-63.111,0-114.273,51.161-114.273,114.272v250.333h33.745V253.758C195.029,196.381,237.32,148.885,292.429,140.729z"/>
<polygon style="fill:#464655;" points="164.393,484.865 88.94,484.865 102.012,382.585 151.321,382.585 "/>
<polygon style="opacity:0.1;enable-background:new    ;" points="102.012,382.585 88.94,484.865 117.412,484.865 130.484,382.585 
	"/>
<rect x="92.048" y="370.03" style="fill:#B3B3B3;" width="69.24" height="55.236"/>
<rect x="92.048" y="370.03" style="opacity:0.1;enable-background:new    ;" width="24.254" height="55.236"/>
<path d="M275.558,99.163c18.701,0,33.916-15.215,33.916-33.915s-15.215-33.916-33.916-33.916c-18.702,0-33.916,15.216-33.916,33.916
	S256.857,99.163,275.558,99.163z M275.558,47.149c9.979,0,18.099,8.119,18.099,18.099c0,9.979-8.119,18.098-18.099,18.098
	c-9.979,0-18.099-8.119-18.099-18.098C257.459,55.267,265.579,47.149,275.558,47.149z"/>
<path d="M389.83,287.136c-4.368,0-7.909,3.54-7.909,7.909v19.916c0,4.369,3.541,7.909,7.909,7.909c4.368,0,7.909-3.54,7.909-7.909
	v-19.916C397.739,290.676,394.198,287.136,389.83,287.136z"/>
<path d="M153.377,492.774v11.317c0,4.369,3.541,7.909,7.909,7.909H389.83c4.368,0,7.909-3.54,7.909-7.909V346.596
	c0-4.369-3.541-7.909-7.909-7.909c-4.368,0-7.909,3.54-7.909,7.909v24.161H169.195c0,0,0-116.995,0-116.999
	c0-12.296,2.13-24.571,6.32-36.133c4.065-11.219,10.043-21.726,17.583-30.973c7.49-9.186,16.508-17.115,26.583-23.36
	c10.535-6.53,22.201-11.189,34.339-13.697c0.777-0.16,1.556-0.316,2.337-0.459c12.646-2.298,25.758-2.298,38.403,0
	c12.553,2.281,24.675,6.904,35.595,13.495c10.169,6.136,19.295,13.978,26.903,23.097c7.653,9.173,13.754,19.628,17.947,30.815
	c4.338,11.578,6.604,23.897,6.714,36.259c0.003,0.318,0.004,0.638,0.004,0.956v9.651c0,4.369,3.541,7.909,7.909,7.909
	c4.368,0,7.909-3.54,7.909-7.909v-9.651c0-55.022-36.561-101.659-86.663-116.91v-25.076c2.512-1.922,4.86-4.045,7.03-6.342
	l4.543,1.06c22.067,5.143,40.856,18.542,52.907,37.73c4.855,7.729,13.207,12.343,22.343,12.343c4.954,0,9.796-1.397,14.003-4.04
	c5.963-3.746,10.112-9.589,11.68-16.454c1.568-6.866,0.369-13.93-3.377-19.893c-14.029-22.337-33.881-39.93-57.266-51.102
	l48.606-13.274c14.022-3.83,22.316-18.353,18.487-32.378C426.91,7.987,416.457,0,404.613,0c-2.342,0-4.682,0.315-6.956,0.936
	l-81.42,22.236C305.693,12.975,291.35,6.68,275.558,6.68c-23.87,0-44.437,14.363-53.549,34.893
	c-47.078,1.117-89.525,29.395-108.693,72.709c-1.767,3.995,0.038,8.666,4.031,10.433c3.995,1.768,8.665-0.037,10.433-4.031
	c16.02-36.204,50.712-60.354,89.711-63.087c-0.172,1.304-0.847,15.928,0.075,15.853c-46.388,3.745-82.989,42.692-82.989,90.029
	v198.637h-15.818V163.479c0-6.16,0.538-12.353,1.601-18.403c0.755-4.301-2.121-8.401-6.423-9.156
	c-4.302-0.75-8.402,2.121-9.157,6.423c-1.22,6.95-1.838,14.062-1.838,21.137v198.637H92.049c-4.368,0-7.909,3.54-7.909,7.909v55.242
	c0,2.777,1.433,5.215,3.597,6.626l-6.642,51.97c-0.288,2.255,0.407,4.523,1.909,6.229c1.502,1.705,3.664,2.683,5.936,2.683H153.377z
	 M406.811,124.589c1.497,2.385,1.977,5.21,1.35,7.957c-0.627,2.746-2.286,5.083-4.673,6.581c-1.684,1.058-3.617,1.617-5.59,1.617
	c-3.66,0-7.005-1.846-8.948-4.939c-13.977-22.253-35.601-37.938-61.027-44.314c1.862-3.7,3.312-7.581,4.342-11.59
	c0.017-0.065,0.031-0.132,0.047-0.197c0.562-2.173,0.981-4.392,1.281-6.616l3.504-0.956
	C366.042,80.433,390.739,98.999,406.811,124.589z M401.826,16.194c0.915-0.25,1.854-0.376,2.787-0.376
	c4.734,0,8.913,3.196,10.162,7.772c1.532,5.609-1.785,11.419-7.394,12.951c0,0-72.345,19.757-72.346,19.757l-1.211,0.33
	l-0.325,0.089c-0.002-0.02-0.007-0.039-0.009-0.059c-0.784-5.315-2.314-10.576-4.549-15.46c-0.637-1.392-1.312-2.773-2.051-4.115
	c-0.066-0.122-0.128-0.248-0.196-0.37L401.826,16.194z M381.922,496.182H169.195v-5.031c0-0.245,1.438-1.412,1.647-1.706
	c1.139-1.612,1.648-3.623,1.397-5.583l-3.044-23.822v-35.504h212.727V496.182z M381.92,386.575v22.145H169.195v-22.145H381.92z
	 M295.258,133.166c-0.098-0.016-0.197-0.026-0.294-0.042c-6.409-1.012-12.916-1.547-19.405-1.547
	c-6.501,0-12.984,0.539-19.405,1.547c-0.098,0.016-0.197,0.025-0.295,0.042v-12.76c6.3,2.256,13.011,3.407,19.701,3.407
	c6.675,0,13.412-1.159,19.699-3.407V133.166z M232.855,63.269c0.496-10.457,4.899-20.523,12.256-27.996
	c7.041-7.153,16.522-11.681,26.522-12.595c1.304-0.119,2.614-0.178,3.925-0.178c11.624,0,22.963,4.864,30.957,13.309
	c5.135,5.424,8.858,12.174,10.599,19.445c0.557,2.325,0.928,4.69,1.082,7.077c0.02,0.289,0.044,0.578,0.059,0.868
	c0.39,8.133-1.56,16.261-5.627,23.322c-5.899,10.238-16.013,17.667-27.508,20.36c-1.016,0.237-2.039,0.439-3.07,0.601
	c-2.145,0.337-4.321,0.518-6.493,0.518c-11.933,0-23.592-5.195-31.6-14.026c-5.076-5.597-8.665-12.523-10.229-19.922
	c-0.611-2.89-0.92-5.847-0.92-8.801C232.808,64.586,232.824,63.927,232.855,63.269z M150.394,163.479
	c0-40.132,31.898-72.937,71.669-74.434c4.02,8.999,10.237,16.804,17.976,22.727v25.076c-50.102,15.25-86.663,61.888-86.663,116.909
	v108.359h-2.983V163.479H150.394z M99.958,377.935h10.891h31.636h10.892v0.731v37.963v0.73H99.958V377.935z M103.52,433.176h46.293
	l5.596,43.78H97.924L103.52,433.176z"/>
<g>
</g>
<g>
</g>
<g>
</g>
<g>
</g>
<g>
</g>
<g>
</g>
<g>
</g>
<g>
</g>
<g>
</g>
<g>
</g>
<g>
</g>
<g>
</g>
<g>
</g>
<g>
</g>
<g>
</g>
</svg>
