<?xml version="1.0" encoding="iso-8859-1"?>
<!-- Generator: Adobe Illustrator 19.0.0, SVG Export Plug-In . SVG Version: 6.00 Build 0)  -->
<svg version="1.1" id="Layer_1" xmlns="http://www.w3.org/2000/svg" xmlns:xlink="http://www.w3.org/1999/xlink" x="0px" y="0px"
	 viewBox="0 0 512 512" style="enable-background:new 0 0 512 512;" xml:space="preserve">
<g>
	<g>
		<path style="fill:#6C686F;" d="M96.001,70.82l90.607-11.327c-3.401-8.516-5.274-17.795-5.274-27.487V10.669L96.001,21.338V70.82z"
			/>
		<path style="fill:#6C686F;" d="M330.663,32.006c0,9.691-1.871,18.97-5.276,27.487l90.609,11.327V21.338l-85.333-10.669V32.006z"/>
	</g>
	<path style="fill:#2C5A7E;" d="M415.996,70.82l-90.609-11.327c-11.003,27.57-38.016,47.174-69.39,47.174
		c-31.37,0-58.384-19.61-69.39-47.174L96.001,70.82v121.179c0,35.2-28.8,64.001-63.999,64.001v138.666h53.335V294.221h341.327
		v100.445h53.334L479.995,256c-35.199,0-63.998-28.805-63.998-64.001V70.82H415.996z M272.928,174.588l32.225-10.583l17.826-25.784
		l20.017,27.382l30.034,8.985l-19.853,27.498l0.737,31.337l-32.292-10.383l-29.579,10.383l-0.1-33.915L272.928,174.588z"/>
	<polygon style="fill:#E8863B;" points="373.03,174.588 342.995,165.603 322.979,138.22 305.152,164.004 272.928,174.588 
		291.944,199.509 292.044,233.423 321.622,223.041 353.914,233.423 353.176,202.086 	"/>
	<polygon style="fill:#F3DDB9;" points="426.662,294.221 85.336,294.221 85.336,394.666 85.336,448.003 426.662,448.003 
		426.662,394.666 	"/>
	<polygon style="fill:#2C5A7E;" points="426.662,448.003 85.336,448.003 32.001,448.003 32.001,501.332 479.997,501.332 
		479.997,448.003 	"/>
	<g>
		<rect x="32.001" y="394.666" style="fill:#6C686F;" width="53.335" height="53.337"/>
		<rect x="426.66" y="394.666" style="fill:#6C686F;" width="53.334" height="53.337"/>
	</g>
</g>
<g>
	<path style="fill:#000003;" d="M490.666,394.666c0-0.006-0.001-0.013-0.001-0.018l-0.001-138.647
		c0-5.892-4.777-10.669-10.669-10.669c-29.407,0-53.329-23.926-53.329-53.333V21.338c0-5.38-4.007-9.919-9.346-10.588L331.986,0.084
		c-3.042-0.381-6.091,0.562-8.385,2.588c-2.294,2.025-3.607,4.939-3.607,7.997v21.337c0,8.128-1.539,15.898-4.317,23.058
		c-0.149,0.33-0.283,0.665-0.399,1.01c-9.534,23.39-32.506,39.922-59.282,39.922c-35.287,0-63.995-28.705-63.995-63.991V10.669
		c0-3.059-1.313-5.972-3.608-7.997c-2.295-2.026-5.354-2.971-8.383-2.588L94.679,10.75c-5.34,0.669-9.346,5.207-9.346,10.588
		v170.661c0,29.407-23.924,53.333-53.331,53.333c-5.893,0-10.669,4.776-10.669,10.669v138.666v53.337v53.328
		c0,5.89,4.775,10.669,10.669,10.669h447.995c2.829,0,5.543-1.126,7.544-3.126s3.125-4.713,3.125-7.543l-0.001-53.321
		c0-0.002,0.001-0.006,0.001-0.009v-53.336H490.666z M341.332,22.755l63.995,8.002v27.979l-66.033-8.255
		c1.319-5.953,2.038-12.129,2.038-18.472V22.755z M170.664,22.755v9.252c0,6.343,0.717,12.519,2.038,18.472l-66.034,8.255V30.756
		L170.664,22.755z M106.669,191.999V80.238l73.491-9.189c14.199,27.461,42.852,46.286,75.839,46.286
		c32.986,0,61.639-18.825,75.836-46.284l73.492,9.187v111.761c0,37.553,27.862,68.719,64,73.909v118.089h-31.996v-89.777
		c0-5.891-4.776-10.669-10.669-10.669H85.336c-5.892,0-10.669,4.777-10.669,10.669v89.777H42.67V265.908
		C78.807,260.716,106.669,229.552,106.669,191.999z M469.328,437.335h-31.996v-32h31.996V437.335z M42.67,405.335h31.997v32H42.67
		V405.335z M96.005,394.666V304.89h319.99v89.777v42.668H96.005V394.666z M42.67,490.663v-31.991h42.666h341.327h42.665v31.991
		H42.67z"/>
	<path style="fill:#000003;" d="M140.539,167.747h0.254c5.891,0,10.669-4.776,10.669-10.669c0-5.89-4.777-10.669-10.669-10.669
		h-0.254c-5.892,0-10.669,4.779-10.669,10.669C129.87,162.971,134.648,167.747,140.539,167.747z"/>
	<path style="fill:#000003;" d="M171.438,167.747h57.434c5.892,0,10.669-4.776,10.669-10.669c0-5.89-4.776-10.669-10.669-10.669
		h-57.434c-5.892,0-10.669,4.779-10.669,10.669C160.769,162.971,165.545,167.747,171.438,167.747z"/>
	<path style="fill:#000003;" d="M193.359,338.728c-12.127,0-21.529,5.626-21.529,20.74v23.283c0,15.113,9.402,20.739,21.529,20.739
		c12.125,0,21.616-5.626,21.616-20.739v-23.283C214.974,344.355,205.484,338.728,193.359,338.728z M201.268,382.752
		c0,6.064-2.99,8.789-7.91,8.789s-7.82-2.726-7.82-8.789v-23.283c0-6.064,2.901-8.785,7.82-8.785s7.91,2.722,7.91,8.785V382.752z"/>
	<path style="fill:#000003;" d="M388.17,350.683c2.636,0,4.13-2.813,4.13-6.064c0-2.813-1.229-5.891-4.13-5.891h-31.283
		c-2.986,0-5.976,1.406-5.976,4.219v55.798c0,2.813,2.989,4.219,5.976,4.219h31.283c2.901,0,4.13-3.078,4.13-5.89
		c0-3.251-1.494-6.064-4.13-6.064h-23.549v-14.934h13.181c2.901,0,4.13-2.813,4.13-5.186c0-2.813-1.495-5.361-4.13-5.361h-13.181
		v-14.847H388.17z"/>
	<path style="fill:#000003;" d="M319.606,350.683c7.471,0,7.734,5.62,7.823,7.908c0.173,3.159,3.161,4.128,6.854,4.128
		c4.655,0,6.854-1.233,6.854-6.504c0-11.158-9.492-17.487-22.055-17.487c-11.513,0-21.09,5.626-21.09,20.74v23.283
		c0,15.113,9.577,20.739,21.09,20.739c12.562,0,22.055-6.676,22.055-18.364c0-5.273-2.198-6.508-6.943-6.508
		c-3.515,0-6.501,0.881-6.764,4.132c-0.265,3.43-0.705,8.789-7.735,8.789c-5.094,0-7.996-2.811-7.996-8.789v-23.283
		C311.699,353.49,314.599,350.683,319.606,350.683z"/>
	<path style="fill:#000003;" d="M260.338,391.011h-20.034V342.86c0-2.903-3.429-4.132-6.856-4.132s-6.854,1.229-6.854,4.132v55.886
		c0,2.813,2.989,4.219,5.976,4.219h27.767c2.637,0,3.953-2.993,3.953-5.978C264.29,394.002,262.975,391.011,260.338,391.011z"/>
	<path style="fill:#000003;" d="M279.516,338.728c-3.429,0-6.855,1.229-6.855,4.132v55.886c0,2.813,3.426,4.219,6.855,4.219
		c3.427,0,6.856-1.406,6.856-4.219V342.86C286.37,339.959,282.942,338.728,279.516,338.728z"/>
	<path style="fill:#000003;" d="M142.984,338.728h-18.187c-3.078,0-5.097,1.936-5.097,4.132v55.886c0,2.813,3.427,4.219,6.854,4.219
		s6.855-1.406,6.855-4.219v-18.981h8.698c12.126,0,21.617-5.623,21.617-20.385v-0.437
		C163.723,344.176,154.584,338.728,142.984,338.728z M150.015,360.435c0,5.972-2.987,8.785-7.909,8.785h-8.698v-18.537h8.698
		c4.921,0,7.909,2.807,7.909,8.785V360.435z"/>
	<path style="fill:#000003;" d="M281.286,203.129l0.092,30.327c0.011,3.455,1.692,6.689,4.513,8.683
		c2.82,1.992,6.43,2.494,9.69,1.353l26.192-9.197l28.874,9.287c1.069,0.344,2.171,0.512,3.266,0.512
		c2.273,0,4.519-0.728,6.386-2.121c2.767-2.068,4.361-5.347,4.28-8.8l-0.652-27.749l17.754-24.59
		c2.022-2.801,2.563-6.405,1.452-9.676c-1.111-3.269-3.735-5.799-7.045-6.788l-26.596-7.958l-17.901-24.486
		c-2.011-2.75-5.211-4.372-8.612-4.372c-0.047,0-0.094,0-0.142,0c-3.453,0.046-6.672,1.76-8.635,4.602l-15.783,22.837l-28.819,9.458
		c-3.282,1.078-5.839,3.675-6.862,6.974c-1.024,3.299-0.387,6.889,1.708,9.635L281.286,203.129z M308.482,174.146
		c2.213-0.725,4.126-2.155,5.45-4.069l9.291-13.445l11.162,15.268c1.373,1.878,3.324,3.257,5.555,3.924l15.657,4.685l-11.071,15.334
		c-1.362,1.886-2.071,4.167-2.017,6.495l0.385,16.337l-18.006-5.793c-1.063-0.341-2.165-0.512-3.268-0.512
		c-1.196,0-2.392,0.202-3.535,0.602l-15.418,5.415l-0.057-18.91c-0.007-2.328-0.776-4.589-2.188-6.439l-9.912-12.992
		L308.482,174.146z"/>
	<path style="fill:#000003;" d="M228.871,202.342h-0.256c-5.892,0-10.669,4.776-10.669,10.669c0,5.89,4.776,10.669,10.669,10.669
		h0.256c5.892,0,10.669-4.779,10.669-10.669C239.54,207.119,234.764,202.342,228.871,202.342z"/>
	<path style="fill:#000003;" d="M140.54,223.68l57.432-0.004c5.892,0,10.669-4.779,10.669-10.671
		c-0.001-5.89-4.778-10.667-10.67-10.667l-57.433,0.004c-5.891,0-10.669,4.776-10.668,10.669
		C129.872,218.904,134.648,223.68,140.54,223.68z"/>
</g>
<g>
</g>
<g>
</g>
<g>
</g>
<g>
</g>
<g>
</g>
<g>
</g>
<g>
</g>
<g>
</g>
<g>
</g>
<g>
</g>
<g>
</g>
<g>
</g>
<g>
</g>
<g>
</g>
<g>
</g>
</svg>
